<svg width="11" height="12" viewBox="0 0 11 12" fill="none" xmlns="http://www.w3.org/2000/svg">
<path d="M6.16699 1.02116C6.16699 0.652969 5.86852 0.354492 5.50033 0.354492C5.13214 0.354492 4.83366 0.652969 4.83366 1.02116V5.0211L0.833659 5.0211C0.465469 5.0211 0.166992 5.31957 0.166992 5.68776C0.166992 6.05595 0.465469 6.35443 0.833659 6.35443L4.83366 6.35443V10.3545C4.83366 10.7227 5.13214 11.0212 5.50033 11.0212C5.86852 11.0212 6.16699 10.7227 6.16699 10.3545V6.35443L10.167 6.35443C10.5352 6.35443 10.8337 6.05595 10.8337 5.68776C10.8337 5.31957 10.5352 5.0211 10.167 5.0211L6.16699 5.0211V1.02116Z" fill="black"/>
</svg>
