<svg width="24" height="24" viewBox="0 0 24 24" fill="none" xmlns="http://www.w3.org/2000/svg">
<path d="M20.737 4.79203C20.6798 4.72938 20.6186 4.67074 20.5539 4.61647C20.5539 4.61647 20.5539 4.61869 20.5517 4.61647C20.4891 4.56018 20.4227 4.5085 20.3531 4.4618C20.1436 4.3149 19.9143 4.20049 19.6725 4.12223H19.6704C19.4207 4.04044 19.1603 3.99921 18.8983 4.00001H5.10214C4.73898 3.99993 4.37987 4.07843 4.04808 4.23042C3.7163 4.38241 3.41924 4.60448 3.17622 4.88225C3.12014 4.94642 3.06727 5.01347 3.01777 5.08314C2.96883 5.15218 2.92189 5.2236 2.87698 5.29738C2.78921 5.44661 2.71603 5.60442 2.65849 5.76851C2.62955 5.85162 2.60493 5.93428 2.58248 6.02006C2.52778 6.24039 2.50008 6.46689 2.50001 6.6943V17.3039C2.4984 18.016 2.77118 18.6997 3.25856 19.2051C3.74594 19.7105 4.40815 19.9964 5.09998 20L18.8957 19.9978C19.2386 19.9971 19.578 19.9268 19.8945 19.791C20.211 19.6552 20.4984 19.4566 20.7403 19.2064C20.9821 18.9562 21.1737 18.6594 21.3041 18.333C21.4344 18.0066 21.501 17.6569 21.5 17.3039V6.69652C21.5011 6.34297 21.4343 5.99267 21.3033 5.66581C21.1724 5.33896 20.9799 5.04199 20.737 4.79203ZM10.081 6.96987V5.38183H13.9194V6.96987H10.081ZM8.64176 18.8813H4.80332V17.2933H8.64176V18.8813ZM8.64176 6.96987H4.80332V5.38183H8.64176V6.96987ZM13.9194 18.8813H10.081V17.2933H13.9194V18.8813ZM14.0922 12.4522L13.856 12.6158L11.9991 13.9047L11.006 14.5923C10.9271 14.6561 10.8324 14.6958 10.7326 14.7067C10.6329 14.7177 10.5321 14.6994 10.442 14.6542C10.3518 14.6089 10.2759 14.5384 10.2229 14.4507C10.1699 14.363 10.142 14.2618 10.1423 14.1585V9.84728C10.1413 9.74374 10.1688 9.64202 10.2216 9.55391C10.2745 9.46581 10.3506 9.39494 10.441 9.34952C10.5314 9.30411 10.6325 9.28602 10.7325 9.29734C10.8325 9.30866 10.9273 9.34893 11.006 9.41349L13.856 11.3869L14.0922 11.5509C14.1577 11.605 14.2106 11.6735 14.2469 11.7515C14.2833 11.8294 14.3021 11.9148 14.3022 12.0012C14.3022 12.0877 14.2834 12.1731 14.2471 12.251C14.2109 12.329 14.158 12.3976 14.0926 12.4518L14.0922 12.4522ZM19.2563 18.8813H15.4178V17.2933H19.2563V18.8813ZM19.2563 6.96987H15.4178V5.38183H19.2563V6.96987Z" fill="white"/>
</svg>
