<svg width="24" height="24" viewBox="0 0 24 24" fill="none" xmlns="http://www.w3.org/2000/svg">
<path d="M19.1838 2.5H4.81536C4.51125 2.49983 4.21009 2.5596 3.9291 2.6759C3.64811 2.79219 3.39279 2.96272 3.17776 3.17776C2.96272 3.39279 2.79219 3.64811 2.6759 3.9291C2.5596 4.21009 2.49983 4.51128 2.5 4.81538V19.1847C2.49977 19.4888 2.55949 19.79 2.67577 20.071C2.79204 20.352 2.96258 20.6074 3.17763 20.8224C3.39267 21.0374 3.64801 21.208 3.92902 21.3243C4.21004 21.4405 4.51124 21.5002 4.81536 21.5H19.1842C19.4883 21.5001 19.7894 21.4402 20.0704 21.3239C20.3514 21.2076 20.6066 21.037 20.8217 20.822C21.0367 20.607 21.2073 20.3517 21.3237 20.0708C21.4401 19.7899 21.5 19.4888 21.5 19.1847V4.81538C21.4999 4.51127 21.44 4.21015 21.3235 3.92921C21.2071 3.64826 21.0365 3.39297 20.8214 3.17797C20.6063 2.96297 20.351 2.79243 20.07 2.67611C19.789 2.55978 19.4879 2.49994 19.1838 2.5ZM15.5756 16.4859C15.4492 16.4859 15.3251 16.52 15.2164 16.5845C15.1077 16.649 15.0183 16.7416 14.9577 16.8525L14.1925 18.2563C14.1271 18.3763 14.0305 18.4765 13.913 18.5463C13.7954 18.616 13.6612 18.6528 13.5245 18.6527H10.308C10.1635 18.6528 10.022 18.6117 9.90005 18.5343C9.77807 18.4569 9.68067 18.3464 9.61923 18.2157L8.99742 16.8905C8.94046 16.7696 8.8503 16.6673 8.73745 16.5957C8.62461 16.524 8.49373 16.486 8.36007 16.4859H5.4501C5.35832 16.4859 5.26741 16.4679 5.1826 16.4328C5.09778 16.3977 5.02073 16.3463 4.95581 16.2814C4.89088 16.2165 4.83937 16.1394 4.80424 16.0546C4.7691 15.9698 4.751 15.879 4.751 15.7872V5.71527C4.75111 5.52993 4.82482 5.35222 4.95591 5.22121C5.08701 5.09019 5.26477 5.01658 5.4501 5.01658H18.5486C18.7339 5.01658 18.9117 5.09019 19.0428 5.22121C19.1739 5.35222 19.2476 5.52993 19.2477 5.71527V15.7872C19.2476 15.9724 19.1739 16.1501 19.0429 16.2811C18.9119 16.4121 18.7343 16.4858 18.549 16.4859H15.5756Z" fill="white"/>
</svg>
