<svg width="24" height="24" viewBox="0 0 24 24" fill="none" xmlns="http://www.w3.org/2000/svg">
<path d="M5.85202 9.23146H3.40107C2.90575 9.23146 2.50421 9.633 2.50421 10.1283V20.6031C2.50421 21.0985 2.90575 21.5 3.40107 21.5H5.85202C6.34734 21.5 6.74888 21.0985 6.74888 20.6031V10.1283C6.74888 9.633 6.34734 9.23146 5.85202 9.23146Z" fill="white"/>
<path d="M13.2273 14.0638H10.7764C10.2811 14.0638 9.87953 14.4654 9.87953 14.9607V20.6027C9.87953 21.098 10.2811 21.4996 10.7764 21.4996H13.2273C13.7227 21.4996 14.1242 21.098 14.1242 20.6027V14.9607C14.1242 14.4654 13.7227 14.0638 13.2273 14.0638Z" fill="white"/>
<path d="M20.6022 19.1506H18.1513C17.656 19.1506 17.2544 19.5521 17.2544 20.0474V20.6027C17.2544 21.0981 17.656 21.4996 18.1513 21.4996H20.6022C21.0976 21.4996 21.4991 21.0981 21.4991 20.6027V20.0474C21.4991 19.5521 21.0976 19.1506 20.6022 19.1506Z" fill="white"/>
<path d="M20.7781 17.0675C20.9696 17.0667 21.1529 16.9899 21.2878 16.8539C21.4227 16.718 21.4981 16.534 21.4975 16.3425V11.7416C21.4977 11.6939 21.4885 11.6466 21.4704 11.6025C21.4523 11.5583 21.4257 11.5181 21.3921 11.4843C21.3585 11.4504 21.3186 11.4235 21.2745 11.4052C21.2305 11.3868 21.1833 11.3772 21.1356 11.3771H19.7935C19.6968 11.3771 19.6041 11.4155 19.5357 11.4839C19.4672 11.5522 19.4288 11.6449 19.4287 11.7416V13.4118C14.6314 8.80565 9.03231 5.11549 2.90766 2.52336C2.863 2.50436 2.81429 2.49675 2.76597 2.50127C2.71765 2.50579 2.67123 2.52228 2.63087 2.54924C2.59022 2.57652 2.55691 2.61342 2.53394 2.65666C2.51096 2.6999 2.49901 2.74812 2.49915 2.79708V4.30841C2.49886 4.39845 2.52492 4.48664 2.5741 4.56206C2.62328 4.63748 2.69343 4.69685 2.77593 4.7329C8.44055 7.21649 13.6186 10.6873 18.0684 14.9832H16.2147C16.1177 14.9835 16.0247 15.0224 15.9563 15.0912C15.8879 15.16 15.8496 15.2532 15.8498 15.3502V16.7005C15.8496 16.7975 15.8879 16.8907 15.9563 16.9595C16.0247 17.0283 16.1177 17.0671 16.2147 17.0675H20.7781Z" fill="white"/>
</svg>
