<svg width="24" height="24" viewBox="0 0 24 24" fill="none" xmlns="http://www.w3.org/2000/svg">
<path d="M18.8086 12.8781H11.7987C11.6186 12.878 11.4459 12.8064 11.3185 12.6791C11.1912 12.5517 11.1196 12.379 11.1195 12.1989V5.19032C11.12 5.04842 11.0903 4.90806 11.0323 4.77857C10.9743 4.64908 10.8893 4.53348 10.783 4.43947C10.6768 4.34545 10.5516 4.2752 10.416 4.23341C10.2804 4.19163 10.1375 4.17926 9.99673 4.19715C8.39466 4.41941 6.88636 5.08423 5.64149 6.11686C4.39661 7.14948 3.46453 8.50894 2.95006 10.0424C2.43559 11.5758 2.35915 13.2223 2.72932 14.7968C3.09949 16.3713 3.9016 17.8113 5.04543 18.9548C6.18927 20.0983 7.62945 20.9 9.20403 21.2698C10.7786 21.6395 12.4251 21.5627 13.9584 21.0478C15.4917 20.5329 16.8509 19.6005 17.8832 18.3553C18.9155 17.1102 19.5799 15.6017 19.8018 13.9996C19.8195 13.8589 19.8071 13.716 19.7652 13.5806C19.7234 13.4451 19.6531 13.3202 19.5591 13.214C19.4651 13.1079 19.3495 13.023 19.2201 12.965C19.0906 12.9071 18.9504 12.8775 18.8086 12.8781Z" fill="white"/>
<path d="M12.8911 3.30623V10.3019C12.8911 10.4075 12.9119 10.5121 12.9523 10.6097C12.9928 10.7073 13.052 10.796 13.1267 10.8707C13.2014 10.9454 13.2901 11.0047 13.3877 11.0451C13.4853 11.0855 13.5899 11.1064 13.6956 11.1064H20.6912C20.802 11.106 20.9116 11.0828 21.0131 11.0383C21.1146 10.9938 21.2058 10.9289 21.2812 10.8476C21.3565 10.7663 21.4143 10.6704 21.451 10.5658C21.4877 10.4612 21.5024 10.3502 21.4944 10.2396C21.221 6.40892 17.7504 2.77209 13.7608 2.5022C13.65 2.49402 13.5387 2.50871 13.4339 2.54537C13.329 2.58202 13.2328 2.63985 13.1512 2.71526C13.0697 2.79067 13.0045 2.88206 12.9597 2.98373C12.915 3.0854 12.8916 3.19515 12.8911 3.30623Z" fill="white"/>
</svg>
