<svg width="24" height="24" viewBox="0 0 24 24" fill="none" xmlns="http://www.w3.org/2000/svg">
<path d="M20.6027 11.012H18.1517C17.6563 11.012 17.2548 11.4136 17.2548 11.9089V20.6031C17.2548 21.0984 17.6563 21.5 18.1517 21.5H20.6027C21.098 21.5 21.4996 21.0984 21.4996 20.6031V11.9089C21.4996 11.4136 21.098 11.012 20.6027 11.012Z" fill="white"/>
<path d="M13.2303 15.3358H10.7793C10.2839 15.3358 9.88238 15.7373 9.88238 16.2326V20.6031C9.88238 21.0984 10.2839 21.5 10.7793 21.5H13.2303C13.7256 21.5 14.1271 21.0984 14.1271 20.6031V16.2326C14.1271 15.7373 13.7256 15.3358 13.2303 15.3358Z" fill="white"/>
<path d="M5.85742 18.8966H3.40642C2.91108 18.8966 2.50954 19.2981 2.50954 19.7935V20.6031C2.50954 21.0985 2.91108 21.5 3.40642 21.5H5.85742C6.35275 21.5 6.7543 21.0985 6.7543 20.6031V19.7935C6.7543 19.2981 6.35275 18.8966 5.85742 18.8966Z" fill="white"/>
<path d="M20.7733 2.5C20.8682 2.50034 20.9621 2.51939 21.0497 2.55603C21.1372 2.59268 21.2166 2.64622 21.2835 2.71359C21.3503 2.78096 21.4033 2.86086 21.4392 2.94869C21.4752 3.03652 21.4935 3.13057 21.4931 3.22548V7.82603C21.4933 7.87377 21.4841 7.92112 21.466 7.9653C21.4479 8.00948 21.4213 8.04962 21.3876 8.08348C21.354 8.11734 21.314 8.14424 21.2699 8.1626C21.2258 8.18096 21.1786 8.19043 21.1308 8.19048H19.7909C19.6943 8.19037 19.6016 8.15196 19.5333 8.08363C19.465 8.01531 19.4265 7.92265 19.4264 7.82603V6.15579C14.6306 10.762 9.03288 14.4522 2.90942 17.0445C2.86476 17.0635 2.81606 17.0711 2.76772 17.0666C2.71939 17.0621 2.67297 17.0456 2.63262 17.0186C2.59243 16.9911 2.55959 16.9542 2.537 16.911C2.51442 16.8679 2.50275 16.8199 2.50306 16.7712V15.2598C2.50273 15.1698 2.5287 15.0817 2.5778 15.0063C2.6269 14.9308 2.697 14.8714 2.77943 14.8353C8.44315 12.3519 13.6201 8.88106 18.0684 4.58482H16.215C16.167 4.5847 16.1194 4.57513 16.0751 4.55662C16.0307 4.5381 15.9905 4.51101 15.9566 4.47691C15.9228 4.44282 15.896 4.40236 15.8777 4.35789C15.8595 4.31342 15.8503 4.26583 15.8506 4.21778V2.86835C15.8503 2.82028 15.8596 2.77263 15.8777 2.72814C15.8959 2.68365 15.9228 2.64319 15.9566 2.60906C15.9905 2.57493 16.0307 2.54782 16.0751 2.52926C16.1194 2.51069 16.1669 2.50107 16.215 2.5009L20.7733 2.5Z" fill="white"/>
</svg>
