<svg width="20" height="15" viewBox="0 0 20 15" fill="none" xmlns="http://www.w3.org/2000/svg">
<path fill-rule="evenodd" clip-rule="evenodd" d="M0.833252 2.5C0.833252 1.11929 1.95254 0 3.33325 0H16.6666C18.0473 0 19.1666 1.11929 19.1666 2.5V12.5C19.1666 13.8807 18.0473 15 16.6666 15H3.33325C1.95254 15 0.833252 13.8807 0.833252 12.5V2.5ZM3.33325 1.66667C2.87301 1.66667 2.49992 2.03976 2.49992 2.5V3.69484L9.99992 8.19484L17.4999 3.69484V2.5C17.4999 2.03976 17.1268 1.66667 16.6666 1.66667H3.33325ZM17.4999 5.63849L10.8574 9.624C10.3296 9.94068 9.67023 9.94068 9.14242 9.624L2.49992 5.63849V12.5C2.49992 12.9602 2.87301 13.3333 3.33325 13.3333H16.6666C17.1268 13.3333 17.4999 12.9602 17.4999 12.5V5.63849Z" fill="#CCCCCC"/>
</svg>
