<svg width="24" height="24" viewBox="0 0 24 24" fill="none" xmlns="http://www.w3.org/2000/svg">
<path d="M22 12.0602C21.9997 10.1374 21.4518 8.25497 20.4213 6.63573C19.3908 5.01649 17.9207 3.72826 16.1851 2.92356C14.4495 2.11885 12.5211 1.83136 10.6282 2.09513C8.73529 2.35889 6.95712 3.16287 5.50421 4.41188C4.0513 5.66088 2.98449 7.30261 2.43009 9.1427C1.87568 10.9828 1.85689 12.9442 2.37593 14.7947C2.89498 16.6452 3.93014 18.3073 5.35884 19.5843C6.78755 20.8612 8.54999 21.6996 10.4375 22V14.9687H7.89875V12.0602H10.4375V9.84347C10.4375 7.32174 11.9306 5.92881 14.2144 5.92881C14.9644 5.93927 15.7126 6.00485 16.4531 6.12501V8.60147H15.1919C14.9769 8.57275 14.7584 8.59306 14.5523 8.6609C14.3462 8.72873 14.158 8.84236 14.0015 8.99335C13.845 9.14434 13.7243 9.32883 13.6483 9.53314C13.5723 9.73746 13.543 9.95636 13.5625 10.1736V12.0602H16.3362L15.8925 14.9687H13.5625V22C15.9149 21.6256 18.0572 20.4187 19.604 18.5965C21.1507 16.7743 22.0004 14.4565 22 12.0602Z" fill="white"/>
</svg>
