<svg width="21" height="20" viewBox="0 0 21 20" fill="none" xmlns="http://www.w3.org/2000/svg">
<path d="M2.16663 4.99984C2.16663 4.5396 2.53972 4.1665 2.99996 4.1665H18C18.4602 4.1665 18.8333 4.5396 18.8333 4.99984C18.8333 5.46008 18.4602 5.83317 18 5.83317L2.99996 5.83317C2.53972 5.83317 2.16663 5.46007 2.16663 4.99984Z" fill="white"/>
<path d="M2.16663 9.99984C2.16663 9.5396 2.53972 9.1665 2.99996 9.1665L18 9.1665C18.4602 9.16651 18.8333 9.5396 18.8333 9.99984C18.8333 10.4601 18.4602 10.8332 18 10.8332L2.99996 10.8332C2.53972 10.8332 2.16663 10.4601 2.16663 9.99984Z" fill="white"/>
<path d="M2.99996 14.1665C2.53972 14.1665 2.16663 14.5396 2.16663 14.9998C2.16663 15.4601 2.53972 15.8332 2.99996 15.8332L18 15.8332C18.4602 15.8332 18.8333 15.4601 18.8333 14.9998C18.8333 14.5396 18.4602 14.1665 18 14.1665L2.99996 14.1665Z" fill="white"/>
</svg>
