<svg width="20" height="21" viewBox="0 0 20 21" fill="none" xmlns="http://www.w3.org/2000/svg">
<path fill-rule="evenodd" clip-rule="evenodd" d="M15.0001 6.3335C15.0001 9.09492 12.7615 11.3335 10.0001 11.3335C7.23866 11.3335 5.00008 9.09492 5.00008 6.3335C5.00008 3.57207 7.23866 1.3335 10.0001 1.3335C12.7615 1.3335 15.0001 3.57207 15.0001 6.3335ZM13.3334 6.3335C13.3334 8.17445 11.841 9.66683 10.0001 9.66683C8.15913 9.66683 6.66675 8.17445 6.66675 6.3335C6.66675 4.49255 8.15913 3.00016 10.0001 3.00016C11.841 3.00016 13.3334 4.49255 13.3334 6.3335Z" fill="#CCCCCC"/>
<path fill-rule="evenodd" clip-rule="evenodd" d="M10.0001 12.1668C7.5542 12.1668 5.79066 12.6742 4.52562 13.4349C3.25552 14.1987 2.54214 15.1855 2.14819 16.0486C1.81612 16.7761 1.96726 17.5175 2.40845 18.0456C2.82901 18.5491 3.48291 18.8335 4.16679 18.8335H15.8334C16.5173 18.8335 17.1712 18.5491 17.5917 18.0457C18.0329 17.5175 18.1841 16.7761 17.852 16.0486C17.4581 15.1856 16.7448 14.1988 15.4747 13.435C14.2096 12.6742 12.4461 12.1668 10.0001 12.1668ZM3.66437 16.7407C3.93784 16.1416 4.44016 15.4311 5.38454 14.8632C6.33396 14.2923 7.78365 13.8335 10.0001 13.8335C12.2167 13.8335 13.6663 14.2923 14.6157 14.8632C15.5601 15.4312 16.0624 16.1416 16.3358 16.7407C16.3681 16.8114 16.3667 16.8539 16.3635 16.8757C16.3598 16.9004 16.3476 16.9353 16.3126 16.9772C16.2375 17.0671 16.07 17.1668 15.8334 17.1668H4.16679C3.93018 17.1668 3.76272 17.0671 3.68758 16.9772C3.6526 16.9353 3.64043 16.9004 3.63673 16.8757C3.63349 16.8539 3.63208 16.8114 3.66437 16.7407Z" fill="#CCCCCC"/>
</svg>
