<svg width="17" height="17" viewBox="0 0 17 17" fill="none" xmlns="http://www.w3.org/2000/svg">
<path fill-rule="evenodd" clip-rule="evenodd" d="M1.89605 1.60564C2.79002 0.354078 4.62329 0.278865 5.61677 1.45299L7.20564 3.33073C7.6665 3.87539 7.72956 4.65299 7.36248 5.2648L6.13849 7.30479C6.23661 7.46535 6.36957 7.65695 6.53965 7.87549C6.84296 8.26521 7.23051 8.69785 7.66271 9.13005C8.39055 9.85789 9.2054 10.5451 9.9068 11.0096L11.9071 9.80939C12.5189 9.44231 13.2965 9.50537 13.8411 9.96624L15.8095 11.6318C16.9377 12.5864 16.8654 14.3479 15.6628 15.2068C13.8084 16.5315 11.3159 16.8465 9.27385 15.6002C7.86609 14.741 6.14107 13.528 4.59783 11.9848C3.1671 10.5541 2.12391 9.07092 1.39633 7.83718C0.197756 5.80481 0.618927 3.39361 1.89605 1.60564ZM4.34446 2.52956C4.05283 2.1849 3.51469 2.20698 3.25228 2.57437C2.25943 3.96435 2.04664 5.65893 2.83194 6.99055C3.50391 8.12998 4.46473 9.49466 5.77634 10.8063C7.19663 12.2266 8.80468 13.3613 10.1421 14.1775C11.5202 15.0186 13.2881 14.8549 14.6941 13.8506C15.0125 13.6232 15.0316 13.1568 14.7329 12.9041L12.7646 11.2385L10.3299 12.6994C10.0721 12.854 9.75104 12.8579 9.48964 12.7094C8.53271 12.166 7.41423 11.2386 6.4842 10.3086C6.01465 9.83901 5.57889 9.35463 5.22438 8.89914C4.87975 8.45633 4.57474 7.99399 4.41074 7.57361C4.317 7.33332 4.33981 7.06316 4.47251 6.84199L5.93333 4.4073L4.34446 2.52956Z" fill="#CCCCCC"/>
</svg>
